<?xml version="1.0" standalone="no"?>
<!DOCTYPE svg PUBLIC "-//W3C//DTD SVG 20010904//EN"
 "http://www.w3.org/TR/2001/REC-SVG-20010904/DTD/svg10.dtd">
<svg version="1.0" xmlns="http://www.w3.org/2000/svg"
 width="1212.000000pt" height="1212.000000pt" viewBox="0 0 1212.000000 1212.000000"
 preserveAspectRatio="xMidYMid meet">
<metadata>
Created by potrace 1.11, written by Peter Selinger 2001-2013
</metadata>
<g transform="translate(0.000000,1212.000000) scale(0.100000,-0.100000)"
fill="#000000" stroke="none">
<path d="M2644 12048 c-181 -189 -367 -422 -521 -651 -135 -202 -187 -292
-307 -537 -405 -821 -562 -1748 -451 -2663 83 -681 327 -1370 687 -1941 167
-263 376 -532 567 -729 l95 -98 263 263 262 262 -72 79 c-615 674 -945 1381
-1063 2272 -21 160 -30 602 -15 774 45 544 177 1013 416 1486 187 369 392 665
644 928 l95 98 -265 265 -265 265 -70 -73z"/>
<path d="M9140 11855 l-264 -264 95 -98 c252 -263 457 -559 644 -928 239 -473
371 -942 416 -1486 15 -172 6 -614 -15 -774 -78 -592 -251 -1100 -539 -1580
-140 -234 -306 -454 -524 -692 l-72 -79 262 -262 263 -263 95 98 c330 340 655
820 858 1270 383 848 512 1754 380 2668 -50 349 -152 728 -290 1075 -57 144
-202 446 -288 597 -71 127 -262 409 -356 528 -94 119 -307 365 -362 417 l-38
38 -265 -265z"/>
<path d="M3855 10788 c-188 -200 -391 -504 -510 -766 -285 -628 -348 -1312
-180 -1982 118 -472 355 -914 686 -1278 l93 -103 265 266 266 265 -46 47
c-194 202 -378 499 -474 766 -79 220 -122 442 -132 682 -24 591 179 1152 576
1593 l75 83 -260 260 c-142 142 -262 259 -265 259 -4 0 -46 -42 -94 -92z"/>
<path d="M7906 10621 l-260 -260 75 -83 c397 -441 600 -1002 576 -1593 -10
-240 -53 -462 -132 -682 -96 -267 -280 -564 -474 -766 l-46 -47 266 -265 265
-266 93 103 c585 643 860 1507 756 2369 -63 526 -258 1011 -575 1434 -89 119
-263 315 -279 315 -3 0 -123 -117 -265 -259z"/>
<path d="M5920 9634 c-86 -17 -185 -51 -261 -90 -345 -178 -530 -566 -451
-948 23 -107 74 -226 140 -323 65 -96 220 -231 316 -275 22 -10 27 -17 23 -37
-5 -25 -866 -2989 -1686 -5801 l-409 -1405 -731 -3 -731 -2 0 -375 0 -375
3930 0 3930 0 0 375 0 375 -731 2 -731 3 -409 1405 c-820 2812 -1681 5776
-1686 5801 -4 20 1 27 23 37 53 25 140 88 208 152 282 266 348 705 157 1045
-84 150 -209 271 -360 349 -133 69 -211 88 -376 91 -77 2 -151 1 -165 -1z
m613 -4697 c257 -886 471 -1627 476 -1644 l10 -33 -960 0 c-910 0 -960 1 -955
18 16 53 857 2946 900 3094 28 98 53 178 56 178 3 0 215 -726 473 -1613z m710
-2444 c2 -10 116 -398 251 -863 136 -465 250 -853 252 -862 5 -17 -80 -18
-1686 -18 -1606 0 -1691 1 -1686 18 3 9 107 368 231 797 125 429 238 817 251
863 l25 82 1178 0 c1114 0 1179 -1 1184 -17z"/>
</g>
</svg>
